# xmcd CD database file
#
# Track frame offsets:
#        150
#        12972
#        30867
#        43805
#        59955
#        77687
#        91980
#        107057
#        125520
#        139500
#
# Disc length: 2063 seconds
#
# Revision: 0
# Processed by: cddbd v1.5.2PL0 Copyright (c) Steve Scherf et al.
# Submitted via: CUERipper 2.1.4
#
DISCID=7e080d0a
DTITLE=Patty Loveless - On Down the Line
DYEAR=1990
DGENRE=Country
TTITLE0=Overtime
TTITLE1=The Night's Too Long
TTITLE2=Blue Memories
TTITLE3=Some Morning Soon
TTITLE4=You Can't Run Away From Your Heart
TTITLE5=On Down the Line
TTITLE6=I've Got to Stop Loving You (And Start Living Again)
TTITLE7=Looking in the Eyes of Love
TTITLE8=I'm That Kind of Girl
TTITLE9=Feelings of Love
EXTD=
EXTT0=
EXTT1=
EXTT2=
EXTT3=
EXTT4=
EXTT5=
EXTT6=
EXTT7=
EXTT8=
EXTT9=
PLAYORDER=
